<?xml version="1.0" encoding="UTF-8"?>
<!DOCTYPE svg PUBLIC "-//W3C//DTD SVG 1.1//EN" "http://www.w3.org/Graphics/SVG/1.1/DTD/svg11.dtd">
<svg xmlns="http://www.w3.org/2000/svg" version="1.1" width="222px" height="220px" style="shape-rendering:geometricPrecision; text-rendering:geometricPrecision; image-rendering:optimizeQuality; fill-rule:evenodd; clip-rule:evenodd" xmlns:xlink="http://www.w3.org/1999/xlink">
<g><path style="opacity:0.993" fill="#5170fe" d="M 198.5,6.5 C 207.366,5.50896 213.199,9.17562 216,17.5C 216.667,32.1667 216.667,46.8333 216,61.5C 213.592,68.9092 208.758,74.0759 201.5,77C 186.167,82.3333 170.833,87.6667 155.5,93C 150.225,94.3585 144.891,94.6919 139.5,94C 115.637,86.6013 91.9708,78.6013 68.5,70C 63.3639,68.4036 58.5306,66.2369 54,63.5C 53.0434,59.5855 54.5434,57.0855 58.5,56C 105.361,39.7209 152.028,23.2209 198.5,6.5 Z"/></g>
<g><path style="opacity:0.996" fill="#5170fe" d="M 17.5,80.5 C 81.684,101.172 145.351,123.339 208.5,147C 212.257,150.421 214.757,154.588 216,159.5C 216.667,174.167 216.667,188.833 216,203.5C 212.283,212.442 205.783,215.609 196.5,213C 137.197,192.788 78.1967,171.788 19.5,150C 11.5379,144.59 6.70455,137.09 5,127.5C 4.33333,115.5 4.33333,103.5 5,91.5C 6.8906,85.1527 11.0573,81.4861 17.5,80.5 Z"/></g>
</svg>